<svg xmlns="http://www.w3.org/2000/svg" xmlns:xlink="http://www.w3.org/1999/xlink" fill="none" version="1.1" width="16" height="16" viewBox="0 0 16 16"><defs><clipPath id="master_svg0_1_01583/1_089"><rect x="0" y="0" width="16" height="16" rx="0"/></clipPath></defs><g clip-path="url(#master_svg0_1_01583/1_089)"><g><path d="M13.9999259765625,5.33335943359375C14.7363259765625,5.33335943359375,15.3333259765625,5.93031943359375,15.3333259765625,6.66669943359375L15.3333259765625,9.33336943359375C15.3333259765625,10.06973943359375,14.7363259765625,10.66669943359375,13.9999259765625,10.66669943359375L13.2919259765625,10.66669943359375C12.9556259765625,13.33341943359375,10.6877259765625,15.33331943359375,7.9999559765625,15.33331943359375L7.9999559765625,14.00001943359375C10.2090959765625,14.00001943359375,11.9999259765625,12.20921943359375,11.9999259765625,10.00002943359375L11.9999259765625,6.00002943359375C11.9999259765625,3.79088943359375,10.2090959765625,2.00002943359375,7.9999559765625,2.00002943359375C5.7908159765625,2.00002943359375,3.9999559765625,3.79088943359375,3.9999559765625,6.00002943359375L3.9999559765625,10.66669943359375L1.9999559765625,10.66669943359375C1.2635799765625,10.66669943359375,0.6666259765625,10.06973943359375,0.6666259765625,9.33336943359375L0.6666259765625,6.66669943359375C0.6666259765625,5.93031943359375,1.2635799765625,5.33335943359375,1.9999559765625,5.33335943359375L2.7079559765625,5.33335943359375C3.0445659765625,2.66693943359375,5.3123759765625,0.66741943359375,7.9999559765625,0.66741943359375C10.6875259765625,0.66741983095775,12.9553259765625,2.66693943359375,13.2919259765625,5.33335943359375L13.9999259765625,5.33335943359375ZM5.1732959765625,10.52335943359375L5.8799559765625,9.39269943359375C6.5153459765625,9.79071943359375,7.2502059765625,10.00123943359375,7.9999559765625,10.00002943359375C8.7497159765625,10.00123943359375,9.4845759765625,9.79071943359375,10.1199559765625,9.39269943359375L10.8266259765625,10.52335943359375C9.9794659765625,11.05411943359375,8.9996559765625,11.33491943359375,7.9999559765625,11.33331943359375C7.0002659765625,11.33491943359375,6.0204559765625,11.05411943359375,5.1732959765625,10.52335943359375Z" fill="#D8D8D8" fill-opacity="1" style="mix-blend-mode:passthrough"/></g></g></svg>